<svg xmlns="http://www.w3.org/2000/svg" width="24" height="24" viewBox="0 0 24 24" fill="none"><path fill="#25D366" d="M17.472 14.382c-.297-.149-1.758-.867-2.03-.967-.273-.099-.472-.148-.672.15-.198.297-.768.966-.941 1.164-.173.199-.347.224-.644.075-.297-.149-1.255-.462-2.39-1.475-.883-.788-1.48-1.761-1.653-2.059-.173-.297-.018-.458.13-.606.134-.133.297-.347.446-.52.149-.174.198-.298.298-.497.099-.198.05-.372-.025-.521-.075-.149-.672-1.62-.92-2.219-.242-.58-.487-.502-.672-.51l-.574-.01c-.198 0-.52.074-.792.372s-1.04 1.017-1.04 2.479 1.065 2.876 1.213 3.074c.149.198 2.096 3.2 5.077 4.487.709.306 1.262.489 1.694.626.712.227 1.36.195 1.872.118.571-.085 1.758-.718 2.006-1.412.248-.694.248-1.29.173-1.413-.074-.124-.272-.198-.57-.347z"/><path fill="#25D366" d="M12.004 2C6.484 2 2 6.484 2 12.004c0 1.77.463 3.507 1.343 5.028L2 22l5.09-1.33a9.93 9.93 0 0 0 4.914 1.334c5.52 0 10.004-4.484 10.004-10.004S17.524 2 12.004 2zm5.79 15.794a8.185 8.185 0 0 1-5.79 2.401 8.17 8.17 0 0 1-4.163-1.137l-.298-.177-3.02.79.807-2.946-.193-.302a8.175 8.175 0 0 1-1.257-4.401c0-4.522 3.68-8.203 8.203-8.203 2.191 0 4.253.853 5.804 2.403a8.163 8.163 0 0 1 2.399 5.8 8.18 8.18 0 0 1-2.402 5.782z"/></svg>